<mxfile host="app.diagrams.net" agent="Mozilla/5.0 (Windows NT 10.0; Win64; x64) AppleWebKit/537.36 (KHTML, like Gecko) Chrome/130.0.0.0 Safari/537.36" version="24.8.1">
  <diagram name="Page-1" id="Ifhuy7FSmFOS4W5px6C2">
    <mxGraphModel dx="1114" dy="1805" grid="1" gridSize="10" guides="1" tooltips="1" connect="1" arrows="1" fold="1" page="1" pageScale="1" pageWidth="850" pageHeight="1100" math="0" shadow="0">
      <root>
        <mxCell id="0" />
        <mxCell id="1" parent="0" />
        <mxCell id="SMdMAvsnnKPryTl62N8l-2" value="Anggota" style="rounded=0;whiteSpace=wrap;html=1;sketch=1;hachureGap=4;jiggle=2;curveFitting=1;strokeColor=#788AA3;fontFamily=Architects Daughter;fontSource=https%3A%2F%2Ffonts.googleapis.com%2Fcss%3Ffamily%3DArchitects%2BDaughter;fontColor=#46495D;fillColor=#B2C9AB;" vertex="1" parent="1">
          <mxGeometry x="90" y="75" width="120" height="60" as="geometry" />
        </mxCell>
        <mxCell id="SMdMAvsnnKPryTl62N8l-3" value="Sistem Peminnjaman Koperasi" style="ellipse;whiteSpace=wrap;html=1;aspect=fixed;rounded=1;sketch=1;hachureGap=4;jiggle=2;curveFitting=1;strokeColor=#788AA3;fontFamily=Architects Daughter;fontSource=https%3A%2F%2Ffonts.googleapis.com%2Fcss%3Ffamily%3DArchitects%2BDaughter;fontColor=#46495D;fillColor=#B2C9AB;" vertex="1" parent="1">
          <mxGeometry x="370" y="65" width="80" height="80" as="geometry" />
        </mxCell>
        <mxCell id="SMdMAvsnnKPryTl62N8l-4" value="Kepala Koperasi" style="rounded=0;whiteSpace=wrap;html=1;sketch=1;hachureGap=4;jiggle=2;curveFitting=1;strokeColor=#788AA3;fontFamily=Architects Daughter;fontSource=https%3A%2F%2Ffonts.googleapis.com%2Fcss%3Ffamily%3DArchitects%2BDaughter;fontColor=#46495D;fillColor=#B2C9AB;" vertex="1" parent="1">
          <mxGeometry x="630" y="75" width="120" height="60" as="geometry" />
        </mxCell>
        <mxCell id="SMdMAvsnnKPryTl62N8l-5" value="" style="endArrow=classic;html=1;rounded=1;sketch=1;hachureGap=4;jiggle=2;curveFitting=1;strokeColor=#788AA3;fontFamily=Architects Daughter;fontSource=https%3A%2F%2Ffonts.googleapis.com%2Fcss%3Ffamily%3DArchitects%2BDaughter;fontColor=#46495D;fillColor=#B2C9AB;exitX=1;exitY=0.5;exitDx=0;exitDy=0;entryX=0;entryY=0.5;entryDx=0;entryDy=0;" edge="1" parent="1" source="SMdMAvsnnKPryTl62N8l-2" target="SMdMAvsnnKPryTl62N8l-3">
          <mxGeometry width="50" height="50" relative="1" as="geometry">
            <mxPoint x="400" y="390" as="sourcePoint" />
            <mxPoint x="450" y="340" as="targetPoint" />
          </mxGeometry>
        </mxCell>
        <mxCell id="SMdMAvsnnKPryTl62N8l-6" value="" style="endArrow=classic;html=1;rounded=1;sketch=1;hachureGap=4;jiggle=2;curveFitting=1;strokeColor=#788AA3;fontFamily=Architects Daughter;fontSource=https%3A%2F%2Ffonts.googleapis.com%2Fcss%3Ffamily%3DArchitects%2BDaughter;fontColor=#46495D;fillColor=#B2C9AB;exitX=0.5;exitY=0;exitDx=0;exitDy=0;entryX=0.5;entryY=0;entryDx=0;entryDy=0;" edge="1" parent="1" source="SMdMAvsnnKPryTl62N8l-2" target="SMdMAvsnnKPryTl62N8l-3">
          <mxGeometry width="50" height="50" relative="1" as="geometry">
            <mxPoint x="400" y="390" as="sourcePoint" />
            <mxPoint x="450" y="340" as="targetPoint" />
            <Array as="points">
              <mxPoint x="150" y="-10" />
              <mxPoint x="310" y="-10" />
              <mxPoint x="410" y="-10" />
            </Array>
          </mxGeometry>
        </mxCell>
        <mxCell id="SMdMAvsnnKPryTl62N8l-7" value="Data_Angsuran" style="text;html=1;align=center;verticalAlign=middle;whiteSpace=wrap;rounded=0;fontFamily=Architects Daughter;fontSource=https%3A%2F%2Ffonts.googleapis.com%2Fcss%3Ffamily%3DArchitects%2BDaughter;fontColor=#46495D;" vertex="1" parent="1">
          <mxGeometry x="260" y="65" width="60" height="30" as="geometry" />
        </mxCell>
        <mxCell id="SMdMAvsnnKPryTl62N8l-8" value="Formulir_PP" style="text;html=1;align=center;verticalAlign=middle;whiteSpace=wrap;rounded=0;fontFamily=Architects Daughter;fontSource=https%3A%2F%2Ffonts.googleapis.com%2Fcss%3Ffamily%3DArchitects%2BDaughter;fontColor=#46495D;" vertex="1" parent="1">
          <mxGeometry x="245" y="-50" width="90" height="30" as="geometry" />
        </mxCell>
        <mxCell id="SMdMAvsnnKPryTl62N8l-10" style="edgeStyle=orthogonalEdgeStyle;rounded=1;sketch=1;hachureGap=4;jiggle=2;curveFitting=1;orthogonalLoop=1;jettySize=auto;html=1;entryX=0;entryY=0.5;entryDx=0;entryDy=0;strokeColor=#788AA3;fontFamily=Architects Daughter;fontSource=https%3A%2F%2Ffonts.googleapis.com%2Fcss%3Ffamily%3DArchitects%2BDaughter;fontColor=#46495D;fillColor=#B2C9AB;" edge="1" parent="1" source="SMdMAvsnnKPryTl62N8l-3" target="SMdMAvsnnKPryTl62N8l-4">
          <mxGeometry relative="1" as="geometry" />
        </mxCell>
        <mxCell id="SMdMAvsnnKPryTl62N8l-11" value="Lap_Peminjaman" style="text;html=1;align=center;verticalAlign=middle;whiteSpace=wrap;rounded=0;fontFamily=Architects Daughter;fontSource=https%3A%2F%2Ffonts.googleapis.com%2Fcss%3Ffamily%3DArchitects%2BDaughter;fontColor=#46495D;" vertex="1" parent="1">
          <mxGeometry x="510" y="60" width="60" height="30" as="geometry" />
        </mxCell>
      </root>
    </mxGraphModel>
  </diagram>
</mxfile>
